#!OML:ASF Y:\EmotionMaleHayes\Project 1\Capture day 1\Session 1\Male1.ASF
:FULLY-SPECIFIED
:DEGREES
2009
root 15.4767 16.996 -17.3517 1060.13 301.312 1095.64
lowerback 5.81498 1.40688 -13.7453
upperback 1.64155 0.865313 -3.73353
thorax -1.69716 0.404875 3.70153
lowerneck -20.5728 -2.05046 -2.12974
upperneck 22.1577 -1.7733 -1.86712
head 10.5231 -1.26499 -0.586268
rclavicle -5.5728e-014 1.19271e-014
rhumerus -41.4774 5.95433 -89.511
rradius 36.2111
rwrist -0.758339
rhand -11.252 -30.735
rfingers 7.12502
rthumb 14.7777 -60.1882
lclavicle -5.5728e-014 1.19271e-014
lhumerus -22.8414 -13.9391 87.8073
lradius 34.9807
lwrist -6.66194
lhand -13.6658 -22.1913
lfingers 7.12502
lthumb 12.4513 7.41785
rfemur -9.86765 -0.103925 2.13368
rtibia 43.5007
rfoot -16.3321 -7.1017
rtoes 1.44135
lfemur 11.7826 3.90748 -36.0746
ltibia 5.07247
lfoot -11.2206 -2.67271
ltoes 21.2099
2010
root 15.4034 16.998 -17.326 1060.64 302.564 1095.38
lowerback 5.89945 1.19666 -14.0282
upperback 1.64869 0.559452 -3.67956
thorax -1.68816 0.25444 3.93531
lowerneck -20.5596 -2.13669 -2.42779
upperneck 22.1757 -1.81232 -1.80882
head 10.5322 -1.30126 -0.522081
rclavicle -3.08209e-014 -3.02153e-014
rhumerus -41.6844 5.94001 -89.0301
rradius 35.3593
rwrist -0.448058
rhand -11.6224 -31.1712
rfingers 7.12502
rthumb 14.4209 -60.6501
lclavicle -3.08209e-014 -3.02153e-014
lhumerus -22.1793 -14.3233 87.8958
lradius 35.3421
lwrist -6.06348
lhand -13.4608 -22.0974
lfingers 7.12502
lthumb 12.649 7.49961
rfemur -10.4206 0.366394 1.70985
rtibia 42.127
rfoot -16.4867 -7.56623
rtoes 3.21899
lfemur 11.8593 3.24422 -36.4019
ltibia 5.27833
lfoot -11.2854 -3.36216
ltoes 22.2661
2011
root 15.3264 16.9981 -17.3006 1061.31 303.713 1094.9
lowerback 5.8998 1.03472 -14.1671
upperback 1.74399 0.354124 -3.56529
thorax -1.5517 0.142682 4.14778
lowerneck -20.6671 -2.29021 -2.55845
upperneck 21.9892 -1.9345 -1.97831
head 10.4851 -1.38607 -0.578341
rclavicle -2.3396e-014 -3.89618e-014
rhumerus -41.5648 6.25283 -88.6364
rradius 34.0599
rwrist -0.508529
rhand -12.0792 -31.2317
rfingers 7.12502
rthumb 13.9807 -60.7416
lclavicle -2.3396e-014 -3.89618e-014
lhumerus -21.2868 -14.7096 88.0087
lradius 35.5604
lwrist -5.61411
lhand -13.479 -22.4682
lfingers 7.12502
lthumb 12.6314 7.12986
rfemur -11.0263 0.854169 1.43463
rtibia 40.8327
rfoot -16.3995 -7.69451
rtoes 5.80799
lfemur 11.9639 2.7697 -36.4385
ltibia 5.47823
lfoot -10.9988 -4.23774
ltoes 21.7281
2012
root 15.2495 16.9995 -17.2733 1062.07 304.767 1094.21
lowerback 5.77786 0.981161 -14.1938
upperback 1.94189 0.333202 -3.42145
thorax -1.26828 0.108278 4.31724
lowerneck -20.6487 -2.56465 -2.90522
upperneck 21.727 -2.23935 -1.84372
head 10.3941 -1.53308 -0.514754
rclavicle 7.84765e-014 4.29375e-014
rhumerus -41.645 5.88322 -87.9452
rradius 33.4901
rwrist -0.115466
rhand -12.1617 -30.9775
rfingers 7.12502
rthumb 13.9011 -60.4929
lclavicle 7.84765e-014 4.29375e-014
lhumerus -20.4106 -15.4235 88.1865
lradius 35.9674
lwrist -5.10689
lhand -13.5467 -22.9812
lfingers 7.12502
lthumb 12.5662 6.62089
rfemur -11.5175 1.27188 1.32147
rtibia 39.6321
rfoot -16.3307 -7.5652
rtoes 7.02754
lfemur 12.1906 2.30069 -36.3001
ltibia 5.6034
lfoot -10.6574 -4.96977
ltoes 20.2837
2013
root 15.173 17.0018 -17.2458 1062.36 305.906 1094.04
lowerback 6.00442 1.17416 -14.16
upperback 1.84038 0.527433 -3.69142
thorax -1.53712 0.223276 3.99715
lowerneck -20.0362 -2.96916 -2.55692
upperneck 21.5383 -2.9176 -1.94531
head 10.2052 -1.82485 -0.695024
rclavicle -2.02698e-014 -4.37326e-014
rhumerus -42.3644 4.83353 -87.6443
rradius 32.8631
rwrist -0.0251238
rhand -12.0964 -30.7116
rfingers 7.12502
rthumb 13.9641 -60.2226
lclavicle -2.02698e-014 -4.37326e-014
lhumerus -20.148 -17.1627 88.2729
lradius 36.501
lwrist -4.24632
lhand -13.3851 -23.3564
lfingers 7.12502
lthumb 12.722 6.23604
rfemur -11.8924 1.64241 0.875095
rtibia 38.3714
rfoot -16.2525 -7.66822
rtoes 7.05016
lfemur 12.4349 1.65821 -36.5652
ltibia 5.7425
lfoot -10.5602 -5.43626
ltoes 20.2704
2014
root 15.0952 17.0025 -17.2207 1062.75 306.966 1093.85
lowerback 6.02395 1.29844 -14.1825
upperback 1.81978 0.67769 -3.8776
thorax -1.59463 0.300692 3.80075
lowerneck -19.5823 -3.31572 -2.18835
upperneck 21.2032 -3.46131 -2.23248
head 9.98722 -2.07564 -0.920127
rclavicle 4.16702e-014 -5.64548e-014
rhumerus -42.9734 2.48256 -86.553
rradius 32.4034
rwrist 1.60514
rhand -11.4219 -30.4666
rfingers 7.12502
rthumb 14.614 -59.9317
lclavicle 4.16702e-014 -5.64548e-014
lhumerus -19.6752 -18.7314 88.337
lradius 36.8829
lwrist -3.5659
lhand -13.6264 -23.4084
lfingers 7.12502
lthumb 12.4893 6.19842
rfemur -12.3258 2.66596 0.347016
rtibia 36.3915
rfoot -16.4326 -7.34709
rtoes 1.34852
lfemur 12.5849 0.946242 -36.7897
ltibia 5.87168
lfoot -10.6944 -5.67771
ltoes 19.986
2015
root 15.0195 17.0027 -17.1947 1063.39 307.914 1093.42
lowerback 5.89083 1.2927 -14.1957
upperback 1.91343 0.710606 -3.78883
thorax -1.42603 0.30467 3.90128
lowerneck -19.5596 -3.61403 -2.54259
upperneck 21.0163 -3.80128 -2.09136
head 9.9272 -2.24124 -0.856974
rclavicle -5.04292e-014 -6.04305e-014
rhumerus -43.0544 2.06167 -85.9135
rradius 31.6056
rwrist 2.02772
rhand -10.7377 -30.5871
rfingers 7.12502
rthumb 15.2732 -60.0032
lclavicle -5.04292e-014 -6.04305e-014
lhumerus -19.0363 -19.8615 88.536
lradius 37.3575
lwrist -3.02859
lhand -14.2833 -23.1791
lfingers 7.12502
lthumb 11.8559 6.4653
rfemur -12.8222 3.36363 0.14416
rtibia 34.8783
rfoot -16.388 -7.13595
rtoes -0.0191599
lfemur 12.6803 0.326481 -36.7872
ltibia 5.97036
lfoot -10.8423 -5.96108
ltoes 18.9813
2016
root 14.9457 17.0013 -17.1655 1064.06 308.851 1092.97
lowerback 5.78935 1.27012 -14.117
upperback 1.98048 0.718524 -3.69082
thorax -1.29885 0.300272 3.96304
lowerneck -19.6481 -3.8419 -2.86855
upperneck 20.8751 -4.03044 -2.01535
head 9.90357 -2.36143 -0.809065
rclavicle -1.43249e-014 3.18055e-015
rhumerus -43.3587 1.47142 -85.1573
rradius 31.1326
rwrist 2.81729
rhand -10.3349 -30.6413
rfingers 7.12502
rthumb 15.6611 -60.0275
lclavicle -1.43249e-014 3.18055e-015
lhumerus -18.4156 -20.9373 88.7279
lradius 37.8915
lwrist -2.44493
lhand -14.6734 -22.9985
lfingers 7.12502
lthumb 11.4798 6.66714
rfemur -13.3553 4.08775 -0.0884053
rtibia 33.3953
rfoot -16.5517 -6.99134
rtoes -2.39061
lfemur 12.7619 -0.190607 -36.7129
ltibia 6.04034
lfoot -10.9096 -6.40733
ltoes 18.953
2017
root 14.868 16.9981 -17.1367 1064.64 309.816 1092.6
lowerback 5.79542 1.25035 -14.0362
upperback 1.96989 0.698405 -3.67355
thorax -1.30945 0.292937 3.93875
lowerneck -19.707 -4.06492 -3.26986
upperneck 20.8509 -4.26256 -1.81098
head 9.92224 -2.47495 -0.706403
rclavicle 3.72721e-015 8.50798e-014
rhumerus -43.8562 1.46795 -84.9144
rradius 30.7625
rwrist 2.73186
rhand -10.7044 -30.5683
rfingers 7.12502
rthumb 15.3052 -59.982
lclavicle 3.72721e-015 8.50798e-014
lhumerus -17.9621 -21.9355 88.8089
lradius 38.368
lwrist -2.02458
lhand -14.8431 -23.0765
lfingers 7.12502
lthumb 11.316 6.59819
rfemur -13.8744 4.75221 -0.413681
rtibia 32.0727
rfoot -16.672 -6.46638
rtoes -5.01852
lfemur 12.9043 -0.618729 -36.6046
ltibia 6.03779
lfoot -10.9458 -6.97298
ltoes 18.9762
2018
root 14.7916 16.9952 -17.1078 1064.94 310.776 1092.51
lowerback 5.86341 1.2905 -14.055
upperback 1.94449 0.733235 -3.76308
thorax -1.37985 0.315426 3.85093
lowerneck -19.65 -4.24382 -3.16071
upperneck 20.8845 -4.5444 -1.82142
head 9.92152 -2.59744 -0.767153
rclavicle 1.11245e-013 9.54166e-014
rhumerus -44.33 1.41376 -84.7716
rradius 30.3543
rwrist 2.43037
rhand -10.7365 -30.6933
rfingers 7.12502
rthumb 15.2743 -60.1093
lclavicle 1.11245e-013 9.54166e-014
lhumerus -17.6366 -23.0941 88.7977
lradius 38.8714
lwrist -1.54759
lhand -14.8994 -23.2747
lfingers 7.12502
lthumb 11.2618 6.40294
rfemur -14.0014 6.02727 -0.860865
rtibia 30.2161
rfoot -16.4262 -6.17231
rtoes -7.13918
lfemur 13.0956 -0.912946 -36.6535
ltibia 5.99634
lfoot -10.9406 -7.65718
ltoes 18.49
2019
root 14.7161 16.9911 -17.0751 1065.2 311.715 1092.5
lowerback 5.93074 1.32737 -14.0944
upperback 1.91482 0.762669 -3.83612
thorax -1.45374 0.335726 3.79189
lowerneck -19.6231 -4.46427 -3.4122
upperneck 20.8785 -4.769 -1.84141
head 9.92296 -2.72309 -0.764851
rclavicle 1.56294e-014 4.29375e-014
rhumerus -44.8103 0.845436 -84.2432
rradius 30.0463
rwrist 2.98476
rhand -10.2103 -30.8621
rfingers 7.12502
rthumb 15.7811 -60.2388
lclavicle 1.56294e-014 4.29375e-014
lhumerus -17.3072 -24.1329 88.8376
lradius 39.3777
lwrist -1.08301
lhand -14.8968 -23.4865
lfingers 7.12502
lthumb 11.2643 6.19106
rfemur -14.05 7.48839 -1.43458
rtibia 28.2051
rfoot -16.2451 -5.65383
rtoes -6.43785
lfemur 13.2625 -1.25426 -36.8203
ltibia 6.01039
lfoot -10.9165 -8.2264
ltoes 17.9652
